PathFileType	4	(X/Y/Z)	RBDS028\RBDS028runT25.trc
DataRate	CameraRate	NumFrames	NumMarkers	Units	OrigDataRate	OrigDataStartFrame	OrigNumFrames
150.000000	150.000000	4	33	mm	150.000000	3375	4500
Frame#	Time	L.ASIS			L.Heel.Bottom			L.Heel.Lateral			L.Heel.Top			L.Iliac.Crest			L.MT1			L.MT5			L.PSIS			L.Shank.Bottom.Lateral			L.Shank.Bottom.Medial			L.Shank.Top.Lateral			L.Shank.Top.Medial			L.Thigh.Bottom.Lateral			L.Thigh.Bottom.Medial			L.Thigh.Top.Lateral			L.Thigh.Top.Medial			R.ASIS			R.ASY			R.Heel.Bottom			R.Heel.Lateral			R.Heel.Top			R.Iliac.Crest			R.MT1			R.MT5			R.PSIS			R.Shank.Bottom.Lateral			R.Shank.Bottom.Medial			R.Shank.Top.Lateral			R.Shank.Top.Medial			R.Thigh.Bottom.Lateral			R.Thigh.Bottom.Medial			R.Thigh.Top.Lateral			R.Thigh.Top.Medial			
		X1	Y1	Z1	X2	Y2	Z2	X3	Y3	Z3	X4	Y4	Z4	X5	Y5	Z5	X6	Y6	Z6	X7	Y7	Z7	X8	Y8	Z8	X9	Y9	Z9	X10	Y10	Z10	X11	Y11	Z11	X12	Y12	Z12	X13	Y13	Z13	X14	Y14	Z14	X15	Y15	Z15	X16	Y16	Z16	X17	Y17	Z17	X18	Y18	Z18	X19	Y19	Z19	X20	Y20	Z20	X21	Y21	Z21	X22	Y22	Z22	X23	Y23	Z23	X24	Y24	Z24	X25	Y25	Z25	X26	Y26	Z26	X27	Y27	Z27	X28	Y28	Z28	X29	Y29	Z29	X30	Y30	Z30	X31	Y31	Z31	X32	Y32	Z32	X33	Y33	Z33	

3376	22.5	2085.919646923823	831.5795316369915	903.6955156430097	1893.721297591528	32.61761702994175	1024.089827446908	1921.534072147625	48.27082132645272	978.8374882778937	1907.782847599671	75.86310199384432	1024.48859369432	2010.268021964464	859.4374295248164	879.9043877159767	2117.118631598724	34.88073699992147	1052.828660142594	2071.073464009728	30.82925786427243	945.3533638775262	1933.970752707681	834.0707483541848	990.310234952844	2006.011962760641	142.2317417403586	951.1849706295994	1970.181282789921	165.7120243584617	979.9163768220739	2027.528713339259	212.4851455587297	916.8452595103251	1998.094809426964	240.4473523352852	951.8039516321229	2122.472460252344	505.1474837874438	854.2556800205369	2063.824523661035	484.3574863531862	891.6911354842049	2080.972707971152	607.3074616154619	846.6982257769425	2025.993570292022	586.7876401609155	883.5461673338417	2097.896726990429	818.4850617619016	1144.080110963041	1807.632806857952	214.2789129802077	1103.893337125235	1726.669212812175	380.3282892134548	1067.881013629056	1744.940167697216	358.9169659893714	1114.534952735869	1771.898929089334	377.9972253734794	1073.278230696842	2046.114958122441	874.0147730218407	1167.260160574341	1776.865771705951	165.8880805910412	1056.389554342382	1749.66765031818	209.8487184548053	1158.048552531114	1942.300662291202	830.8665770015164	1079.675249941249	1864.6155569317	342.2995899407277	1146.839759818416	1863.306393486341	379.857165095547	1105.791823720299	1936.50867589878	372.6254647461383	1170.004134460446	1935.223440714927	407.1053243278173	1128.679568782216	2127.414114744839	482.9365822627548	1207.588060533093	2075.702099502388	461.9710971354166	1163.366007750391	2086.542172311426	585.9587367267245	1206.159903096507	2035.157670659896	564.2210272501256	1166.940815465484	
3377	22.50666666666667	2084.149931173911	831.2379541632881	903.4299904793392	1877.211620431373	34.06416062130883	1024.131909776348	1905.001247570764	49.22042023178267	978.7272749316699	1891.581273587733	77.21179865725897	1024.208408984244	2007.299253746792	858.5839431284061	879.4143002693856	2100.496069731229	34.65176515445474	1052.681042967273	2054.065069708886	30.62024030063209	945.2266218862945	1932.218094613482	834.0367622363495	990.1230760702391	1990.851123987675	142.9284682432991	950.6717716044111	1955.599682641026	167.172896349209	979.5944077493989	2013.781673337823	212.6426794203403	916.2335257307454	1985.067981163474	241.3084703328497	951.3197769568912	2114.913443930297	503.726513618508	853.0188182915078	2055.511681659409	483.8957392073457	889.8137508434569	2075.421532711068	606.7094613392738	845.8181946901984	2020.027687683055	587.1407360274834	882.5534511919589	2095.933750925726	817.4851655457442	1144.051444963133	1825.167381697563	210.8540065948918	1105.553738991505	1738.499888185006	374.4257499376172	1071.701276582645	1758.36597998867	353.454225793813	1118.048913083434	1783.934533314931	373.4901186922958	1076.227641323144	2042.354386341497	872.8927640730511	1167.173586914654	1794.99509913331	161.7445954550909	1058.378220858212	1768.372513765059	204.4895499877452	1160.84287911708	1940.499509764413	830.3658926151134	1079.269904976459	1878.861554920178	339.5989614223095	1148.706018090736	1876.347275945163	377.4473305949425	1107.925900746071	1950.394913060758	371.2012120167104	1171.299123804466	1947.94003633839	405.9746887661881	1130.25876712832	2137.640111480581	485.2231163041067	1207.506855658618	2086.100411846025	462.1150204318788	1164.047193416264	2092.842194836858	586.6299617633293	1206.170293096691	2041.571409221938	562.7398438088014	1167.974039428017	
3378	22.51333333333334	2082.447981327714	831.2570429341096	903.0301471999804	1860.622907884066	35.56721418388393	1024.223297857824	1888.396060119817	50.26122165426192	978.6860719351603	1875.313966653547	78.62128201715946	1024.022865036764	2004.668201823457	858.4078937101194	878.7675664084707	2083.73797914175	34.39928278439483	1052.670078576017	2036.940939497741	30.490732923358	945.217936357529	1930.606899939898	834.5466708204597	989.7691265530285	1975.392418426976	143.7695841142496	950.3521855664385	1940.681163323313	168.6699634118351	979.4886798163036	1999.564550699042	213.007692874065	915.8584195745016	1971.535503807123	242.267809466441	951.1055355488888	2106.708953948966	502.566965086451	852.0771119214314	2046.573005304138	483.9029504438864	888.3105125080519	2069.458141610482	606.4017244576502	845.0860969772914	2013.647866206089	587.9754126137801	881.7746503724828	2094.15805530017	817.0868124862246	1143.88840506548	1843.196010832669	206.8120925242031	1107.248342636597	1750.254874595641	367.276593834786	1075.287444686983	1771.745281282726	346.9105432705737	1121.333429866874	1795.806166431664	367.9252969582348	1078.974321014604	2038.843054512667	872.3701222257248	1166.944618908984	1813.921315209703	156.8145104016398	1060.408587236817	1787.610085209586	198.3675251221044	1163.547300864797	1938.850258641963	830.4274654542403	1078.70752967433	1893.009849813028	336.5570877753319	1150.394236645963	1889.094920906328	374.543784057856	1109.815085627959	1963.987132101922	369.8483717744632	1172.323603872267	1960.158229202136	404.7820953294153	1131.512573167813	2147.538359640601	488.5114845639521	1207.103203227921	2096.258369253776	463.3167156882534	1164.387428486743	2098.938466326693	588.194062823292	1205.912166182285	2047.884863388491	562.2254194747679	1168.686979749574	
3379	22.52	2080.801219874149	831.6367943010089	902.4552051436197	1843.984520595809	37.183729897021	1024.33283172456	1871.755968392781	51.43083745163302	978.6821251106636	1859.011936311704	80.14342094324917	1023.886225167686	2002.427594713054	858.8740115748317	877.9960859061896	2066.860090594361	34.17454362673577	1052.766512842828	2019.740702745249	30.44733361818944	945.3195815150425	1929.143101019716	835.568474146072	989.2935227778214	1959.709101126415	144.8147113726158	950.1849252251892	1925.490008671357	170.2632343160758	979.5413893972922	1984.964647192171	213.6476048395316	915.6836419905776	1957.572083170807	243.3926418845069	951.11394447775	2097.942265281552	501.7189959461002	851.4646395383285	2037.125268081414	484.4206672378009	887.2499597389238	2063.135297153455	606.4075510901084	844.5184994364589	2006.922606146211	589.305533506991	881.2378981685156	2092.640182956812	817.2956883280833	1143.533281174794	1861.669022755749	202.2246957930389	1108.95657732269	1762.009791056964	358.9047143350721	1078.564085966138	1785.108464655914	339.3324412722773	1124.319077136825	1807.56506528264	361.3125355716252	1081.468502636609	2035.770400679831	872.4329546222071	1166.558748491713	1833.613056782365	151.1829550757884	1062.470249944434	1807.325606106409	191.5993807844039	1166.13144638957	1937.380148247266	831.0278435944126	1078.037991613185	1907.032553986906	333.179637981661	1151.874683898799	1901.542932210884	371.1296245804321	1111.430332861385	1977.228901476315	368.5473600142693	1173.068867352933	1971.844469098581	403.4856117711405	1132.428142798774	2157.006893746543	492.744401059367	1206.38606240482	2106.057879725226	465.5468317545005	1164.406337004059	2104.774895947241	590.6335551207317	1205.393424988853	2054.039032373546	562.6823086601242	1169.078854679698	
